<?xml version="1.0" encoding="utf-8"?>
<!-- Generator: Adobe Illustrator 24.0.2, SVG Export Plug-In . SVG Version: 6.00 Build 0)  -->
<svg version="1.1" id="Layer_1" xmlns="http://www.w3.org/2000/svg" xmlns:xlink="http://www.w3.org/1999/xlink" x="0px" y="0px"
	 viewBox="0 0 2812.6 885.7" style="enable-background:new 0 0 2812.6 885.7;" xml:space="preserve">
<style type="text/css">
	.st0{fill:#808080;stroke:#4D4D4D;stroke-width:6.37;stroke-miterlimit:10;}
	.st1{fill:#666666;}
	.st2{fill:#808080;stroke:#4D4D4D;stroke-width:10;stroke-miterlimit:10;}
	.st3{fill:#808080;stroke:#4D4D4D;stroke-width:3;stroke-miterlimit:10;}
	.st4{fill:none;stroke:#4D4D4D;stroke-width:8.81;stroke-miterlimit:10;}
	.st5{fill:#808080;stroke:#4D4D4D;stroke-width:6.65;stroke-miterlimit:10;}
	.st6{stroke:#4D4D4D;stroke-width:12.61;stroke-miterlimit:10;}
	.st7{fill:none;stroke:#4D4D4D;stroke-width:12.61;stroke-miterlimit:10;}
	.st8{fill:#808080;stroke:#4D4D4D;stroke-width:10.1;stroke-miterlimit:10;}
	.st9{fill:#DE241B;}
	.st10{fill:#808080;stroke:#4D4D4D;stroke-width:11.15;stroke-miterlimit:10;}
	.st11{stroke:#4D4D4D;stroke-width:21.14;stroke-miterlimit:10;}
	.st12{fill:none;stroke:#4D4D4D;stroke-width:21.14;stroke-miterlimit:10;}
	.st13{fill:#808080;}
	.st14{fill:none;stroke:#4D4D4D;stroke-width:2.94;stroke-miterlimit:10;}
	.st15{fill:#007545;}
</style>
<title>ShipRightAlpha</title>
<g id="Layer_2_1_">
	<g id="Layer_8">
		<path class="st0" d="M711.2,582.5H308.8c-44.9,0-81.2-36.4-81.2-81.2v0c0-44.9,36.4-81.2,81.2-81.2h402.4
			c44.9,0,81.2,36.4,81.2,81.2v0C792.4,546.1,756,582.5,711.2,582.5z"/>
		<path class="st1" d="M233.9,478.4c12.6-25.3,38.4-41.3,66.7-41.4h349.6c41.2,0,74.7,33.7,74.7,75.1c0,31.3-19.3,59.3-48.6,70.3
			h35.3c44.6,0,80.8-36.4,80.8-81.2c0-21.5-8.5-42.2-23.7-57.4c-15.1-15.3-35.7-23.8-57.1-23.8H311.4
			C275.5,420.1,243.9,443.8,233.9,478.4z"/>
		<path class="st2" d="M349.7,545.3v114.8c0,40.7,20.7,73.6,46.2,73.6c0,0,685.6-56.5,696.8-56.5s667.6,56.5,667.6,56.5
			c34.6,0,64.1-33.9,76.3-82c4-16,6-32.5,6-49c0-36.2-9.2-68.9-24.1-92.6s-35.5-38.4-58.2-38.4H395.9
			C370.4,471.7,349.7,504.7,349.7,545.3z"/>
		<path class="st3" d="M237.8,645.8v10.8h481.9c62,0,112.4,50.3,112.4,112.3c0,26.3-9.3,51.9-26.1,72.1l766.3-31.2
			c52,0,270-44,270-134l0.3,0.3c0-8.5-2.1-16.8-6-24.3c-13.4-26.3-47.8-45-88.2-45H290.7C261.5,606.8,237.8,624.2,237.8,645.8z
			 M1248.3,736c0-0.8,0-1.5,0.1-2.3c1.3-12,12-20.7,24-19.4c10.2,1.1,18.3,9.2,19.4,19.4c0.1,0.7,0.1,1.5,0.1,2.3
			c0,12-9.7,21.8-21.8,21.8C1258.1,757.8,1248.3,748.1,1248.3,736C1248.3,736,1248.3,736,1248.3,736z M1159.4,736
			c0-0.8,0-1.5,0.1-2.3c1.3-12,12-20.7,24-19.4c10.2,1.1,18.3,9.2,19.4,19.4c0.1,0.7,0.1,1.5,0.1,2.3c0,12-9.8,21.8-21.8,21.8
			C1169.2,757.8,1159.4,748,1159.4,736z M1070.5,736c0-0.8,0-1.5,0.1-2.3c1.3-12,12-20.7,24-19.4c10.2,1.1,18.3,9.2,19.4,19.4
			c0.1,0.7,0.1,1.5,0.1,2.3c0,12-9.7,21.8-21.8,21.8C1080.3,757.8,1070.5,748.1,1070.5,736C1070.5,736,1070.5,736,1070.5,736z
			 M981.6,736c0-0.8,0-1.5,0.1-2.3c1.3-12,12-20.7,24-19.4c10.2,1.1,18.3,9.2,19.4,19.4c0.1,0.7,0.1,1.5,0.1,2.3
			c0,12-9.7,21.8-21.8,21.8C991.4,757.8,981.7,748.1,981.6,736C981.6,736,981.6,736,981.6,736z M892.8,736c0-0.8,0-1.5,0.1-2.3
			c1.3-12,12-20.7,24-19.4c10.2,1.1,18.3,9.2,19.4,19.4c0.1,0.7,0.1,1.5,0.1,2.3c0,12-9.8,21.8-21.8,21.8
			C902.5,757.8,892.8,748,892.8,736z"/>
		<path class="st1" d="M274.8,854.5c5.2,1.2,10.6,1.8,15.9,1.8l1281.6-51c52,0,270-43,270-131.1l0.3,0.3c0-37.5-42.2-67.8-94.2-67.8
			h-60c52,0,94.2,30.4,94.2,67.8l-0.3-0.3c0,88-218,131.1-270,131.1L274.8,854.5z"/>
		<path class="st4" d="M237.8,645.8v177.2c0,21.5,23.7,39,52.9,39l1281.6-52.1c52,0,270-44,270-134l0.3,0.3c0-8.5-2.1-16.8-6-24.3
			c-13.4-26.3-47.8-45-88.2-45H290.7C261.5,606.8,237.8,624.2,237.8,645.8z"/>
		<path class="st5" d="M3.3,542c0,83.8,372.9,151.8,575.9,151.8s367.5-68,367.5-151.8c0-33.5-10-64.6-28.1-92.5
			c-39.1-60.2-115.6-105.2-209.5-127.7c-45.6-10.7-92.2-16.1-139-15.9c-45.4,0-88.4,4.1-127.8,12.2
			c-94.3,19.4-270.2,48.3-359.4,125.2C57.8,464.9,3.3,504.9,3.3,542z"/>
		<path class="st1" d="M560.5,693.5c6.2,0.1,12.4,0.2,18.7,0.2c203,0,367.5-67.9,367.5-151.8c0-33.5-10-64.6-28.1-92.5
			c-39.1-60.1-115.6-105.2-209.5-127.7c-45.6-10.7-92.2-16.1-139-15.9c-6.5,0-13,0.1-19.4,0.3c40.7,1.1,81.2,6.3,120.8,15.7
			c93.8,22.4,170.4,67.5,209.5,127.7c18,27.8,28.1,58.9,28.1,92.5C909.1,623.2,754.7,689.5,560.5,693.5z"/>
		<path class="st6" d="M82.6,447.3c35.8,48.6,351,113.7,496.6,113.7c199.5,0,328.8-86.8,335-110.4
			C875.1,390.4,803,344.3,709.1,321.8c-45.6-10.7-92.2-16.1-139-15.9c-45.4,0-87.7,1.3-127.8,5.1C329.8,321.5,155.9,379,82.6,447.3z
			 M577.8,349.3c40.3,0,73.1,11.2,73.1,25.1s-32.7,25.1-73.1,25.1s-73.1-11.2-73.1-25.1S537.4,349.3,577.8,349.3L577.8,349.3z"/>
		<path class="st7" d="M224.9,505.5c53.4-51.3,191.9-99.9,316.3-109.3"/>
		<path class="st7" d="M756.8,335.6c-45.2,1.1-85.2,10.4-119.5,28.4"/>
		<path class="st7" d="M520.4,364c-16.3-18.8-111.5-32.9-170.5-36.8"/>
		<path class="st7" d="M801.3,521.7C745.9,462,699,435.5,613.6,396.2"/>
		<path class="st8" d="M2288.8,279.3c0,17.8,14.4,32.3,32.3,32.3c17.8,0,86.8-14.5,86.8-32.3S2338.9,247,2321,247
			C2303.2,247,2288.7,261.5,2288.8,279.3z"/>
		<circle class="st9" cx="2315.2" cy="281.3" r="13.6"/>
		<path class="st10" d="M2807.1,475c0,134.9-651.4,244.2-1006,244.2s-642-109.3-642-244.2c0-54,17.6-104,49.2-148.8
			c68.2-96.8,202-169.3,365.9-205.4c75.7-16.7,157.8-25.7,242.8-25.7c79.3,0,154.4,6.6,223.3,19.7c164.8,31.2,472,77.7,627.8,201.4
			C2711.9,351,2807.1,415.4,2807.1,475z"/>
		<path class="st1" d="M2801.9,476c0,134.9-651.4,244.2-1006,244.2c-138.6,0-267-23.7-372-52.1c96.9,22.3,210.5,42.1,332,42.1
			c354.5,0,1006-109.3,1006-244.2c0-59.7-95.1-124-138.9-158.7c-79.8-63.3-199.2-106.4-318.8-137.6
			c132.5,31.8,270.2,77.2,358.8,147.6C2706.7,352,2801.9,416.4,2801.9,476z"/>
		<path class="st11" d="M2668.6,322.6c-62.5,78.1-613.1,183-867.5,183c-348.4,0-574.3-139.6-585.2-177.7
			c68.2-96.7,194.3-171,358.3-207.2c75.7-16.7,157.8-25.7,242.8-25.7c79.3,0,153.3,2.1,223.3,8.1
			C2236.8,120.3,2540.6,212.8,2668.6,322.6z M1803.7,165c-70.5,0-127.7,18-127.7,40.4s57.1,40.4,127.6,40.4s127.6-18.1,127.6-40.4
			S1874.1,165,1803.7,165z"/>
		<path class="st12" d="M2420,416.3c-93.2-82.6-335.1-160.7-552.6-175.8"/>
		<path class="st12" d="M1491,143c79,1.7,148.8,16.7,208.7,45.7"/>
		<path class="st12" d="M1903.9,188.7c28.4-30.2,194.7-52.9,297.8-59.2"/>
		<path class="st12" d="M1413.1,442.5c96.9-96.1,178.7-138.7,328-202"/>
		<path class="st13" d="M50.7,768.9c0,62.1,50.3,112.4,112.4,112.4h556.7c62.1,0,112.3-50.4,112.3-112.4
			c0-62-50.3-112.3-112.3-112.3H163.1C101,656.5,50.7,706.8,50.7,768.9z M523.8,776.5c0,15.4-12.5,27.8-27.8,27.8
			c-15.4,0-27.8-12.5-27.8-27.8c0-15.4,12.5-27.8,27.8-27.8C511.3,748.7,523.8,761.2,523.8,776.5L523.8,776.5z M621.3,775.5
			c0,15.4-12.5,27.8-27.8,27.8s-27.8-12.5-27.8-27.8c0-15.4,12.5-27.8,27.8-27.8C608.8,747.7,621.3,760.2,621.3,775.5L621.3,775.5z
			 M690.9,747.7c15.4,0,27.8,12.5,27.8,27.8s-12.5,27.8-27.8,27.8s-27.8-12.5-27.8-27.8c0,0,0,0,0,0
			C663.1,760.2,675.5,747.7,690.9,747.7L690.9,747.7z"/>
		<path class="st4" d="M50.7,768.9c0,62.1,50.3,112.4,112.4,112.4h556.7c62.1,0,112.3-50.4,112.3-112.4c0-62-50.3-112.3-112.3-112.3
			H163.1C101,656.5,50.7,706.8,50.7,768.9z"/>
		<circle class="st14" cx="690.9" cy="775.5" r="27.8"/>
		<circle class="st14" cx="593.4" cy="775.5" r="27.8"/>
		<circle class="st14" cx="495.9" cy="776.5" r="27.8"/>
		<path class="st1" d="M151.4,877c4.3,0.5,8.7,0.7,13,0.7h553.2c61.7,0,111.7-48.6,111.7-108.5c0-29-11.8-56.7-32.7-76.7
			c-21.2-20.5-49.5-31.9-79-31.8h-54.8c24.8,2.7,48,13.6,65.9,31c20.9,20.1,32.7,47.8,32.7,76.7c0,59.9-50,108.5-111.7,108.5
			L151.4,877z"/>
		<path d="M145.5,769.5h-3.3c-0.3-2.4-1.3-3.6-3.2-3.6c-1-0.1-1.9,0.3-2.6,0.9c-0.6,0.8-1,1.7-0.9,2.7c0,0.9,0.4,1.8,1,2.6l7.1,8.6
			c1.3,1.4,2,3.2,2,5.1v1.8c0,1.9-0.7,3.7-2,5.1c-1.2,1.4-2.9,2.2-4.7,2.2h-3.3c-1.8,0.1-3.7-0.5-5-1.8c-1.1-1.2-1.7-3-1.7-5.5h3.4
			v0.6c-0.1,0.9,0.3,1.7,1,2.3c0.7,0.5,1.5,0.8,2.3,0.8c0.9,0.1,1.9-0.3,2.5-0.9c0.6-0.8,0.8-1.7,0.8-2.7c0-0.9-0.4-1.9-1-2.6
			l-7.1-8.6c-1.3-1.4-2-3.2-2-5.1v-1.8c0-1.9,0.7-3.7,2-5.1c1.2-1.4,2.9-2.2,4.7-2.2h3.3C143,762.3,145.2,764.7,145.5,769.5z"/>
		<path d="M152.1,794.8v-7.3h6.7v7.3H152.1z"/>
		<path d="M182.2,769.5h-3.3c-0.3-2.4-1.3-3.6-3.2-3.6c-1-0.1-1.9,0.3-2.6,0.9c-0.6,0.8-1,1.7-0.9,2.7c0,0.9,0.4,1.8,1,2.6l7.1,8.6
			c1.3,1.4,2,3.2,2,5.1v1.8c0,1.9-0.7,3.7-2,5.1c-1.2,1.4-2.9,2.2-4.7,2.2h-3.3c-1.8,0.1-3.7-0.5-5-1.8c-1.1-1.2-1.7-3-1.7-5.5h3.4
			v0.6c-0.1,0.9,0.3,1.7,1,2.3c0.7,0.5,1.5,0.8,2.3,0.8c0.9,0.1,1.9-0.3,2.5-0.9c0.6-0.8,0.8-1.7,0.8-2.7c0-0.9-0.4-1.9-1-2.6
			l-7.1-8.6c-1.3-1.4-2-3.2-2-5.1v-1.8c0-1.9,0.7-3.7,2-5.1c1.2-1.4,2.9-2.2,4.7-2.2h3.3C179.7,762.3,181.9,764.7,182.2,769.5z"/>
		<path d="M188.8,794.8v-7.3h6.7v7.3H188.8z"/>
		<path d="M212.2,794.8v-32.6h1.6l14.3,15.4l14.2-15.4h3.4v32.5h-6.7V775l-11.7,12.7L215.5,775v19.9L212.2,794.8z"/>
		<path d="M252.2,794.8v-25.3c0-1.9,0.7-3.7,2-5.1c1.2-1.4,2.9-2.1,4.7-2.1h6.7c1.8,0,3.5,0.8,4.7,2.2c1.3,1.4,2,3.2,2,5.1v25.3
			h-6.7v-14.5h-6.7v14.5H252.2z M258.9,776.7h6.7v-7.2c0-1-0.3-1.9-1-2.6c-0.6-0.7-1.5-1.1-2.4-1.1c-0.9,0-1.8,0.4-2.3,1.1
			c-0.7,0.7-1,1.6-1,2.6L258.9,776.7z"/>
		<path d="M278.9,794.8v-32.6h13.4c1.8,0,3.5,0.8,4.7,2.2c1.3,1.4,2,3.2,2,5.1v2c0,1.7-0.5,3.3-1.5,4.7c-1,1.5-2.7,2.2-5.1,2.2h3.3
			c0.9,0,1.8,0.4,2.3,1.1c0.7,0.7,1,1.6,1,2.6v12.8h-6.6V784c0-0.9-0.3-1.9-1-2.5c-0.6-0.7-1.5-1.1-2.4-1.1h-3.3v14.5L278.9,794.8z
			 M285.6,776.7h3.3c0.9,0,1.8-0.4,2.4-1.1c0.7-0.7,1-1.6,1-2.5v-3.6c0-1-0.3-1.9-1-2.6c-0.6-0.7-1.5-1.1-2.4-1.1h-3.3V776.7z"/>
		<path d="M309,794.8v-28.9h-6.7v-3.6h20v3.6h-6.7v28.9H309z"/>
		<path d="M329,794.8v-32.6h6.6v32.5L329,794.8z"/>
		<path d="M345.7,794.8v-25.3c0-1.9,0.7-3.7,2-5.1c1.2-1.4,2.9-2.1,4.7-2.1h6.7c1.8,0,3.5,0.8,4.7,2.2c1.3,1.4,2,3.2,2,5.1v25.3
			h-6.6v-14.5h-6.7v14.5H345.7z M352.4,776.7h6.7v-7.2c0-1-0.3-1.9-1-2.6c-0.6-0.7-1.5-1.1-2.4-1.1c-0.9,0-1.8,0.4-2.3,1.1
			c-0.7,0.7-1,1.6-1,2.6L352.4,776.7z"/>
		<path d="M372.4,794.8v-32.6h1.6l18.5,18.1v-18.1h3.4v32.5h-1.5l-18.5-18.1v18.1L372.4,794.8z"/>
		<path d="M415.8,794.8v-32.6h6.6v32.5L415.8,794.8z"/>
		<path class="st8" d="M2288.8,549.3c0,17.8,14.4,32.3,32.3,32.3c17.8,0,86.8-14.5,86.8-32.3S2338.9,517,2321,517
			C2303.2,517,2288.7,531.5,2288.8,549.3z"/>
		<circle class="st15" cx="2315.2" cy="551.3" r="13.6"/>
	</g>
</g>
</svg>
