<svg xmlns="http://www.w3.org/2000/svg" viewBox="0 0 98.03 157.68"><defs><style>.cls-1{fill:none;stroke:#fff;stroke-miterlimit:10;stroke-width:7.12px;}.cls-2{fill:#fff;}</style></defs><title>Logo</title><g id="Layer_2" data-name="Layer 2"><g id="Layer_1-2" data-name="Layer 1"><path class="cls-1" d="M81.24,17A45.45,45.45,0,0,0,3.56,49c0,25.1,20.35,105.1,45.45,105.1S94.47,74.12,94.47,49A45.31,45.31,0,0,0,81.24,17ZM53.12,61.26a6.59,6.59,0,0,1-4.26,1.8,6.36,6.36,0,0,1-4.24-1.85,15.37,15.37,0,0,1-4.53-10.35,8.93,8.93,0,1,1,17.87,0A15.22,15.22,0,0,1,53.12,61.26Z"/><rect class="cls-2" x="1.93" y="86.83" width="60.28" height="7.12" transform="translate(-63.47 81.95) rotate(-65.41)"/><polygon class="cls-2" points="59.4 47.21 54.05 42.51 78.84 14.32 82.66 18.14 83.95 19.27 83.87 19.36 59.4 47.21"/><rect class="cls-2" x="62.33" y="59.54" width="7.12" height="61" transform="translate(-31.35 35.33) rotate(-24.44)"/><polygon class="cls-2" points="38.87 47.21 14.32 19.27 15.61 18.14 19.42 14.32 19.67 14.57 44.22 42.51 38.87 47.21"/></g></g></svg>