<svg xmlns="http://www.w3.org/2000/svg" viewBox="0 0 2812.65 801.09"><defs><style>.cls-1,.cls-11,.cls-13,.cls-3,.cls-4,.cls-6,.cls-9{fill:gray;}.cls-1,.cls-11,.cls-12,.cls-14,.cls-3,.cls-4,.cls-5,.cls-6,.cls-7,.cls-8,.cls-9{stroke:#4d4d4d;stroke-miterlimit:10;}.cls-1{stroke-width:6.37px;}.cls-2{fill:#666;}.cls-3{stroke-width:10px;}.cls-4{stroke-width:3px;}.cls-12,.cls-14,.cls-5,.cls-8{fill:none;}.cls-5{stroke-width:8.81px;}.cls-6{stroke-width:6.65px;}.cls-12,.cls-7{stroke-width:21.14px;}.cls-8{stroke-width:12.61px;}.cls-9{stroke-width:10.1px;}.cls-10{fill:#de241b;}.cls-11{stroke-width:11.15px;}.cls-14{stroke-width:2.94px;}.cls-15{font-size:43.4px;font-family:Silom, Silom;}</style></defs><title>ShipLeft</title><g id="Layer_2" data-name="Layer 2"><g id="Layer_6" data-name="Layer 6"><rect class="cls-1" x="2020.26" y="335.43" width="564.85" height="162.45" rx="81.22" ry="81.22"/><path class="cls-2" d="M2578.73,393.78A74.72,74.72,0,0,0,2512,352.42H2162.43c-41.18,0-74.68,33.69-74.68,75.11a75.19,75.19,0,0,0,48.56,70.35H2101c-44.61,0-80.77-36.36-80.77-81.22a81.16,81.16,0,0,1,23.66-57.43A80.27,80.27,0,0,1,2101,335.43h400.18A80.87,80.87,0,0,1,2578.73,393.78Z"/><path class="cls-3" d="M2463,460.75v114.8c0,40.67-20.7,73.63-46.24,73.63,0,0-685.56-56.47-696.84-56.47s-667.57,56.47-667.57,56.47c-34.55,0-64.13-33.91-76.31-82a199.8,199.8,0,0,1-6-49.05c0-36.18,9.21-68.94,24.1-92.65s35.46-38.38,58.18-38.38H2416.74C2442.28,387.12,2463,420.08,2463,460.75Z"/><path class="cls-4" d="M2522,522.21H1064.21c-40.36,0-74.8,18.7-88.19,45a53.3,53.3,0,0,0-6,24.35l.35-.34c0,90,218,134,270,134l766.3,31.15A112.36,112.36,0,0,1,2092.92,572h481.95V561.17C2574.87,539.65,2551.18,522.21,2522,522.21Zm-979.42,151a21.8,21.8,0,0,1-21.8-21.8c0-.76,0-1.52.11-2.26a21.81,21.81,0,0,1,43.38,0c.07.74.11,1.5.11,2.26A21.8,21.8,0,0,1,1542.54,673.24Zm88.89,0a21.8,21.8,0,0,1-21.8-21.8c0-.76,0-1.52.11-2.26a21.81,21.81,0,0,1,43.38,0c.07.74.11,1.5.11,2.26A21.8,21.8,0,0,1,1631.43,673.24Zm88.89,0a21.8,21.8,0,0,1-21.8-21.8c0-.76,0-1.52.11-2.26a21.81,21.81,0,0,1,43.38,0c.07.74.11,1.5.11,2.26A21.8,21.8,0,0,1,1720.32,673.24Zm88.89,0a21.8,21.8,0,0,1-21.8-21.8c0-.76,0-1.52.11-2.26a21.81,21.81,0,0,1,43.38,0c.07.74.11,1.5.11,2.26A21.8,21.8,0,0,1,1809.21,673.24Zm88.89,0a21.8,21.8,0,0,1-21.8-21.8c0-.76,0-1.52.11-2.26a21.81,21.81,0,0,1,43.38,0c.07.74.11,1.5.11,2.26A21.8,21.8,0,0,1,1898.1,673.24Z"/><path class="cls-2" d="M2537.86,770a72.2,72.2,0,0,1-15.9,1.75L1240.4,720.76c-52,0-270-43-270-131.06l-.35.33c0-37.46,42.16-67.82,94.16-67.82h60c-52,0-94.16,30.36-94.16,67.82l.35-.33c0,88,218,131.06,270,131.06Z"/><path class="cls-5" d="M2522,522.21H1064.21c-40.36,0-74.8,18.7-88.19,45a53.3,53.3,0,0,0-6,24.35l.35-.34c0,90,218,134,270,134L2522,777.3c29.22,0,52.91-17.44,52.91-39V561.17C2574.87,539.65,2551.18,522.21,2522,522.21Z"/><path class="cls-6" d="M2809.32,457.39c0,83.82-372.92,151.77-575.89,151.77s-367.51-67.94-367.51-151.77c0-33.55,10-64.62,28.14-92.46,39.07-60.14,115.64-105.21,209.49-127.68a599,599,0,0,1,139-15.94c45.39,0,88.39,4.12,127.81,12.24,94.34,19.41,270.2,48.3,359.41,125.19C2754.85,380.34,2809.32,420.3,2809.32,457.39Z"/><path class="cls-2" d="M2252.16,609q-9.3.19-18.73.2c-203,0-367.5-67.94-367.5-151.76,0-33.55,10-64.62,28.13-92.46,39.07-60.14,115.65-105.22,209.49-127.68a598.8,598.8,0,0,1,139-15.94q9.78,0,19.4.26a592.68,592.68,0,0,0-120.78,15.69c-93.84,22.46-170.42,67.54-209.49,127.68-18.09,27.84-28.13,58.91-28.13,92.46C1903.56,538.6,2058,604.89,2252.16,609Z"/><path class="cls-7" d="M2370.37,226.37c-40.07-3.77-82.42-5.06-127.81-5.06a599,599,0,0,0-139,15.94c-93.84,22.47-166,68.63-205.1,128.77,6.2,23.65,135.52,110.42,335,110.42,145.62,0,460.81-65.19,496.61-113.76C2656.74,294.42,2482.85,236.94,2370.37,226.37ZM2308,289.8c0,13.86-32.71,25.1-73.06,25.1s-73.06-11.24-73.06-25.1,32.71-25.1,73.06-25.1S2308,275.94,2308,289.8Z"/><path class="cls-8" d="M2587.76,420.89c-53.37-51.31-191.86-99.88-316.34-109.26"/><path class="cls-8" d="M2175.34,279.45c-34.29-18-74.22-27.32-119.46-28.4"/><path class="cls-8" d="M2462.73,242.68c-59,3.88-154.17,18-170.45,36.77"/><path class="cls-8" d="M2011.32,437.15c55.47-59.75,102.29-86.21,187.77-125.52"/><path class="cls-9" d="M523.9,194.73A32.29,32.29,0,0,1,491.61,227c-17.83,0-86.76-14.46-86.76-32.29s68.92-32.29,86.76-32.29A32.29,32.29,0,0,1,523.9,194.73Z"/><circle class="cls-10" cx="497.45" cy="196.68" r="13.62"/><path class="cls-11" d="M5.58,390.44c0,134.87,651.42,244.2,1006,244.2s642-109.33,642-244.2c0-54-17.55-104-49.15-148.78-68.24-96.77-202-169.3-365.93-205.45-75.68-16.71-157.78-25.65-242.83-25.65-79.28,0-154.4,6.63-223.26,19.7C607.54,61.5,300.34,108,144.51,231.7,100.73,266.47,5.58,330.77,5.58,390.44Z"/><path class="cls-2" d="M10.8,391.44c0,134.88,651.42,244.21,1006,244.21,138.64,0,267-23.72,372-52.14-96.86,22.3-210.47,42.14-332,42.14-354.54,0-1006-109.33-1006-244.21,0-59.68,95.15-124,138.93-158.74,79.75-63.32,199.16-106.41,318.83-137.57C376,116.93,238.38,162.32,149.73,232.7,106,267.46,10.8,331.76,10.8,391.44Z"/><path class="cls-7" d="M772.34,18.7c70-6.06,144-8.13,223.26-8.13,85.05,0,167.15,8.94,242.83,25.65,163.92,36.15,290,110.44,358.27,207.21C1585.86,281.48,1360,421.1,1011.55,421.1c-254.38,0-804.94-104.89-867.48-183C272.1,128.21,575.86,35.71,772.34,18.7Zm109,102.07c0,22.31,57.14,40.39,127.63,40.39s127.63-18.09,127.63-40.39S1079.48,80.38,1009,80.38,881.37,98.47,881.37,120.78Z"/><path class="cls-12" d="M392.6,331.71C485.82,249.15,727.74,171,945.18,155.9"/><path class="cls-12" d="M1113,104.13c59.91-29,129.64-44,208.67-45.7"/><path class="cls-12" d="M611,45c103,6.24,269.31,28.94,297.75,59.16"/><path class="cls-12" d="M1399.53,357.87c-96.9-96.14-178.67-138.71-328-202"/><path class="cls-13" d="M2649.59,572H2092.92a112.36,112.36,0,0,0,0,224.72h556.67a112.36,112.36,0,1,0,0-224.72Zm-332.86,92.16A27.84,27.84,0,1,1,2288.89,692,27.84,27.84,0,0,1,2316.73,664.12Zm-97.5-1A27.84,27.84,0,1,1,2191.39,691,27.84,27.84,0,0,1,2219.23,663.12ZM2149.57,691a27.83,27.83,0,1,1-27.83-27.84A27.84,27.84,0,0,1,2149.57,691Z"/><path class="cls-5" d="M2649.59,572H2092.92a112.36,112.36,0,0,0,0,224.72h556.67a112.36,112.36,0,1,0,0-224.72Z"/><circle class="cls-14" cx="2121.74" cy="690.96" r="27.84"/><circle class="cls-14" cx="2219.23" cy="690.96" r="27.84"/><circle class="cls-14" cx="2316.73" cy="691.96" r="27.84"/><path class="cls-2" d="M2661.24,792.38a115.57,115.57,0,0,1-13,.73H2095.09c-61.67,0-111.65-48.58-111.65-108.5a106.65,106.65,0,0,1,32.7-76.73,112.94,112.94,0,0,1,78.95-31.78h54.77a112.56,112.56,0,0,0-65.94,31,106.65,106.65,0,0,0-32.7,76.73c0,59.92,50,108.5,111.65,108.5Z"/><text class="cls-15" transform="translate(2389.17 710.26) scale(0.92 1)">S.S. MARTIAN I</text><path class="cls-9" d="M523.9,464.73A32.29,32.29,0,0,1,491.61,497c-17.83,0-86.76-14.46-86.76-32.29s68.92-32.29,86.76-32.29A32.29,32.29,0,0,1,523.9,464.73Z"/><circle class="cls-10" cx="497.45" cy="466.68" r="13.62"/></g></g></svg>