<svg xmlns="http://www.w3.org/2000/svg" viewBox="0 0 2728.13 1275.44"><defs><style>.cls-1,.cls-4,.cls-7,.cls-8{fill:gray;}.cls-1,.cls-11,.cls-12,.cls-3,.cls-4,.cls-5,.cls-6,.cls-7,.cls-8{stroke:#4d4d4d;stroke-miterlimit:10;}.cls-1{stroke-width:9.69px;}.cls-2{fill:#666;}.cls-3{stroke-width:1.83px;}.cls-4{stroke-width:14.45px;}.cls-5,.cls-6{stroke-width:12.21px;}.cls-12,.cls-6{fill:none;}.cls-7{stroke-width:14.24px;}.cls-8{stroke-width:10.1px;}.cls-9{fill:#de241b;}.cls-10{fill:#007545;}.cls-11,.cls-12{stroke-width:17.96px;}</style></defs><title>ShipTop</title><g id="Layer_2" data-name="Layer 2"><g id="Layer_9" data-name="Layer 9"><rect class="cls-1" x="1840.58" y="4.84" width="858.9" height="247.02" rx="123.51" ry="123.51"/><path class="cls-2" d="M2689.8,93.58a113.62,113.62,0,0,0-101.44-62.9H2056.77c-62.62,0-113.56,51.23-113.56,114.21a114.34,114.34,0,0,0,73.84,107H1963.4c-67.84,0-122.83-55.3-122.83-123.51a123.42,123.42,0,0,1,36-87.33A122.06,122.06,0,0,1,1963.4,4.84h608.51C2627.74,4.84,2674.86,42.3,2689.8,93.58Z"/><ellipse class="cls-3" cx="2041.28" cy="25.42" rx="24.26" ry="12.38"/><ellipse class="cls-3" cx="2140.21" cy="25.42" rx="24.26" ry="12.38"/><ellipse class="cls-3" cx="2239.14" cy="25.42" rx="24.26" ry="12.38"/><rect class="cls-1" x="1840.58" y="1023.58" width="858.9" height="247.02" rx="123.51" ry="123.51"/><path class="cls-2" d="M2688.18,1110.57a113.62,113.62,0,0,0-101.25-61.67H2056.36c-62.5,0-113.35,50.22-113.35,112,0,48,30.69,89,73.7,104.88h-53.54c-67.71,0-122.59-54.21-122.59-121.09a119.92,119.92,0,0,1,35.91-85.62,122.93,122.93,0,0,1,86.68-35.47h607.35C2626.24,1023.58,2673.28,1060.3,2688.18,1110.57Z"/><ellipse class="cls-3" cx="2041.28" cy="1250.06" rx="24.26" ry="12.38"/><ellipse class="cls-3" cx="2140.21" cy="1250.06" rx="24.26" ry="12.38"/><ellipse class="cls-3" cx="2239.14" cy="1250.06" rx="24.26" ry="12.38"/><rect class="cls-4" x="1035.71" y="251.86" width="1178.57" height="250.24" rx="70.31" ry="70.31"/><path class="cls-2" d="M2214.28,431.79V394.64a55.79,55.79,0,0,1-55.8,55.8H1334.82a55.79,55.79,0,0,1-55.8-55.8v-87a55.79,55.79,0,0,1,55.8-55.8H1106a70.31,70.31,0,0,0-70.31,70.31V431.79A70.31,70.31,0,0,0,1106,502.1H2144A70.31,70.31,0,0,0,2214.28,431.79Z"/><ellipse class="cls-3" cx="1454.61" cy="273.03" rx="24.26" ry="12.38"/><ellipse class="cls-3" cx="1553.54" cy="273.03" rx="24.26" ry="12.38"/><ellipse class="cls-3" cx="1652.48" cy="273.03" rx="24.26" ry="12.38"/><ellipse class="cls-3" cx="1751.41" cy="273.03" rx="24.26" ry="12.38"/><ellipse class="cls-3" cx="1850.34" cy="273.03" rx="24.26" ry="12.38"/><rect class="cls-4" x="1035.71" y="771.72" width="1178.57" height="250.24" rx="70.31" ry="70.31"/><path class="cls-2" d="M2214.28,842v37.15a55.79,55.79,0,0,0-55.8-55.8H1334.82a55.79,55.79,0,0,0-55.8,55.8v87a55.43,55.43,0,0,0,4.79,22.63c-62.53,29.46-130.47,32.76-177.42,33.11l-2.41,0h-.1c-.5,0-1,0-1.5-.06h-.06a70.33,70.33,0,0,1-66.63-70.21V842A70.29,70.29,0,0,1,1106,771.72H2144A70.31,70.31,0,0,1,2214.28,842Z"/><ellipse class="cls-3" cx="1454.61" cy="998" rx="24.26" ry="12.38"/><ellipse class="cls-3" cx="1553.54" cy="998" rx="24.26" ry="12.38"/><ellipse class="cls-3" cx="1652.48" cy="998" rx="24.26" ry="12.38"/><ellipse class="cls-3" cx="1751.41" cy="998" rx="24.26" ry="12.38"/><ellipse class="cls-3" cx="1850.34" cy="998" rx="24.26" ry="12.38"/><path class="cls-1" d="M2723.29,637.72c0,189.92-495.07,343.88-685,343.88s-343.88-154-343.88-343.88,154-343.88,343.88-343.88S2723.29,447.8,2723.29,637.72Z"/><path class="cls-2" d="M2718.5,637.67a110.76,110.76,0,0,1-1.72,19.38c-31.67-180.89-493.27-324.46-675.7-324.46S1709.6,476.16,1699.61,657.05q-.55-9.62-.54-19.38c0-189.9,153.13-343.84,342-343.84S2718.5,447.77,2718.5,637.67Z"/><path class="cls-2" d="M1729.57,649c13,177.29,136.18,271.6,310.36,327.81C1851.25,978.56,1698.29,822,1698.29,633.4s154.89-335.69,343.57-335.69C1920.12,323.7,1716.41,469.54,1729.57,649Z"/><path class="cls-5" d="M2038.3,377.79c-143.56,0-259.93,116.38-259.93,259.93s116.38,259.93,259.93,259.93,601-116.38,601-259.93S2181.85,377.79,2038.3,377.79Zm10.6,311a51.08,51.08,0,1,1,0-102.16c28.36,0,69.77,23.79,69.77,52S2077.26,688.8,2048.9,688.8Z"/><line class="cls-6" x1="2431.67" y1="806.29" x2="2108.01" y2="662.87"/><polyline class="cls-6" points="2014.55 593.62 1854.78 453.24 1854.3 452.76"/><line class="cls-6" x1="2431.67" y1="469.06" x2="2108.01" y2="614.41"/><polyline class="cls-6" points="1854.3 821.32 1854.78 820.84 2014.55 680.46"/><path class="cls-7" d="M7.12,637.72c0-279.26,727.95-505.65,1007.21-505.65S1520,358.46,1520,637.72s-226.39,505.65-505.65,505.65S7.12,917,7.12,637.72Z"/><path class="cls-2" d="M45.88,657.11c0,114.21,121.85,211.81,284.9,296.47C148.66,865.9,7.12,760.84,7.12,637.73c0-279.28,727.95-505.67,1007.2-505.67,88.92,0,172.49,30.7,245.09,71-63-28.2-132.84-51.63-206.33-51.63C773.83,151.44,45.88,377.83,45.88,657.11Z"/><path class="cls-8" d="M503.27,957.69a27,27,0,0,1-27,27c-14.92,0-72.57-12.09-72.57-27s57.65-27,72.57-27A27,27,0,0,1,503.27,957.69Z"/><circle class="cls-9" cx="481.14" cy="959.31" r="11.39"/><path class="cls-8" d="M503.27,322a27,27,0,0,1-27,27c-14.92,0-72.57-12.09-72.57-27s57.65-27,72.57-27A27,27,0,0,1,503.27,322Z"/><circle class="cls-10" cx="481.14" cy="323.62" r="11.39"/><path class="cls-11" d="M1014.33,1019.93c211.09,0,382.21-171.12,382.21-382.21s-171.12-382.21-382.21-382.21S130.57,426.63,130.57,637.72,803.25,1019.93,1014.33,1019.93ZM998.75,562.61c41.7,0,75.52,33.63,75.52,75.11s-33.82,75.11-75.52,75.11-102.59-35-102.59-76.46S957,562.61,998.75,562.61Z"/><line class="cls-12" x1="435.92" y1="389.86" x2="911.83" y2="600.74"/><polyline class="cls-12" points="1049.26 702.57 1284.18 908.98 1284.89 909.69"/><line class="cls-12" x1="435.92" y1="885.72" x2="911.83" y2="671.99"/><polyline class="cls-12" points="1284.89 367.75 1284.18 368.46 1049.26 574.88"/><path d="M2315.95,1247.59h-2.83q-.38-1.62-2.69-1.62a4.88,4.88,0,0,0-2.25.41,1.3,1.3,0,0,0-.75,1.22q0,.6.82,1.14l6,3.82q1.67,1.06,1.67,2.28v.79a2.71,2.71,0,0,1-1.67,2.27,8,8,0,0,1-4,1h-2.83a8.93,8.93,0,0,1-4.26-.8,2.6,2.6,0,0,1-1.43-2.42h2.86v.27c0,.44.29.77.89,1a5.28,5.28,0,0,0,1.94.35,4.25,4.25,0,0,0,2.17-.42,1.34,1.34,0,0,0,.66-1.2,1.43,1.43,0,0,0-.82-1.14l-6-3.82q-1.67-1-1.67-2.28v-.79a2.7,2.7,0,0,1,1.67-2.27,8,8,0,0,1,4-1h2.83Q2315.6,1244.37,2315.95,1247.59Z"/><path d="M2321.6,1258.84v-3.22h5.69v3.22Z"/><path d="M2347.17,1247.59h-2.83q-.38-1.62-2.69-1.62a4.88,4.88,0,0,0-2.25.41,1.3,1.3,0,0,0-.75,1.22q0,.6.82,1.14l6,3.82q1.67,1.06,1.67,2.28v.79a2.71,2.71,0,0,1-1.67,2.27,8,8,0,0,1-4,1h-2.83a8.93,8.93,0,0,1-4.26-.8,2.6,2.6,0,0,1-1.43-2.42h2.86v.27c0,.44.29.77.89,1a5.28,5.28,0,0,0,1.94.35,4.25,4.25,0,0,0,2.17-.42,1.34,1.34,0,0,0,.66-1.2,1.43,1.43,0,0,0-.82-1.14l-6-3.82q-1.67-1-1.67-2.28v-.79a2.7,2.7,0,0,1,1.67-2.27,8,8,0,0,1,4-1h2.83Q2346.82,1244.37,2347.17,1247.59Z"/><path d="M2352.82,1258.84v-3.22h5.69v3.22Z"/><path d="M2372.69,1258.84v-14.47H2374l12.13,6.85,12.1-6.85h2.86v14.47h-5.69V1250l-10,5.63-9.92-5.63v8.83Z"/><path d="M2406.77,1258.84v-11.25a2.7,2.7,0,0,1,1.69-2.28,8.07,8.07,0,0,1,4-.94h5.69a7.89,7.89,0,0,1,4,1,2.71,2.71,0,0,1,1.67,2.27v11.25h-5.66v-6.42h-5.69v6.42Zm5.69-8h5.69v-3.2a1.35,1.35,0,0,0-.83-1.15,4.06,4.06,0,0,0-2-.47,4,4,0,0,0-2,.47,1.35,1.35,0,0,0-.84,1.15Z"/><path d="M2429.5,1258.84v-14.47h11.38a7.89,7.89,0,0,1,4,1,2.71,2.71,0,0,1,1.67,2.27v.87a2.72,2.72,0,0,1-1.29,2.07,7.32,7.32,0,0,1-4.36,1h2.83a4,4,0,0,1,2,.47,1.36,1.36,0,0,1,.83,1.15v5.69h-5.66V1254a1.35,1.35,0,0,0-.83-1.13,4.06,4.06,0,0,0-2-.47h-2.83v6.42Zm5.69-8H2438a4,4,0,0,0,2-.47,1.34,1.34,0,0,0,.83-1.13v-1.6a1.35,1.35,0,0,0-.83-1.15,4.06,4.06,0,0,0-2-.47h-2.83Z"/><path d="M2455.1,1258.84V1246h-5.69v-1.6h17v1.6h-5.69v12.87Z"/><path d="M2472.14,1258.84v-14.47h5.66v14.47Z"/><path d="M2486.32,1258.84v-11.25a2.7,2.7,0,0,1,1.69-2.28,8.07,8.07,0,0,1,4-.94h5.69a7.89,7.89,0,0,1,4,1,2.71,2.71,0,0,1,1.67,2.27v11.25h-5.66v-6.42H2492v6.42Zm5.69-8h5.69v-3.2a1.35,1.35,0,0,0-.83-1.15,4.06,4.06,0,0,0-2-.47,4,4,0,0,0-2,.47,1.35,1.35,0,0,0-.84,1.15Z"/><path d="M2509,1258.84v-14.47h1.33l15.71,8v-8H2529v14.47h-1.29l-15.75-8v8Z"/><path d="M2546,1258.84v-14.47h5.66v14.47Z"/><path d="M2537.44,28.75h2.83q.38,1.62,2.69,1.62a4.88,4.88,0,0,0,2.25-.41,1.3,1.3,0,0,0,.75-1.22q0-.6-.82-1.14l-6-3.82q-1.67-1.06-1.67-2.28v-.79a2.71,2.71,0,0,1,1.67-2.27,8,8,0,0,1,4-1H2546a8.93,8.93,0,0,1,4.26.8,2.6,2.6,0,0,1,1.43,2.42h-2.86v-.27c0-.44-.29-.77-.89-1a5.28,5.28,0,0,0-1.94-.35,4.25,4.25,0,0,0-2.17.42,1.34,1.34,0,0,0-.66,1.2,1.43,1.43,0,0,0,.82,1.14l6,3.82q1.67,1,1.67,2.28v.79A2.7,2.7,0,0,1,2550,31a8,8,0,0,1-4,1h-2.83Q2537.78,32,2537.44,28.75Z"/><path d="M2531.78,17.5v3.22h-5.69V17.5Z"/><path d="M2506.22,28.75h2.83q.38,1.62,2.69,1.62A4.88,4.88,0,0,0,2514,30a1.3,1.3,0,0,0,.75-1.22q0-.6-.82-1.14l-6-3.82q-1.67-1.06-1.67-2.28v-.79a2.71,2.71,0,0,1,1.67-2.27,8,8,0,0,1,4-1h2.83a8.93,8.93,0,0,1,4.26.8,2.6,2.6,0,0,1,1.43,2.42h-2.86v-.27c0-.44-.29-.77-.89-1a5.28,5.28,0,0,0-1.94-.35,4.25,4.25,0,0,0-2.17.42,1.34,1.34,0,0,0-.66,1.2,1.43,1.43,0,0,0,.82,1.14l6,3.82q1.67,1,1.67,2.28v.79a2.7,2.7,0,0,1-1.67,2.27,8,8,0,0,1-4,1h-2.83Q2506.56,32,2506.22,28.75Z"/><path d="M2500.56,17.5v3.22h-5.69V17.5Z"/><path d="M2480.69,17.5V32h-1.33l-12.13-6.85L2455.14,32h-2.86V17.5H2458v8.83l10-5.63,9.92,5.63V17.5Z"/><path d="M2446.61,17.5V28.75a2.7,2.7,0,0,1-1.69,2.28,8.07,8.07,0,0,1-4,.94h-5.69a7.89,7.89,0,0,1-4-1,2.71,2.71,0,0,1-1.67-2.27V17.5h5.66v6.42h5.69V17.5Zm-5.69,8h-5.69v3.2a1.35,1.35,0,0,0,.83,1.15,4.06,4.06,0,0,0,2,.47,4,4,0,0,0,2-.47,1.35,1.35,0,0,0,.84-1.15Z"/><path d="M2423.88,17.5V32H2412.5a7.89,7.89,0,0,1-4-1,2.71,2.71,0,0,1-1.67-2.27v-.87a2.72,2.72,0,0,1,1.29-2.07,7.32,7.32,0,0,1,4.36-1h-2.83a4,4,0,0,1-2-.47,1.36,1.36,0,0,1-.83-1.15V17.5h5.66v4.82a1.35,1.35,0,0,0,.83,1.13,4.06,4.06,0,0,0,2,.47h2.83V17.5Zm-5.69,8h-2.83a4,4,0,0,0-2,.47,1.34,1.34,0,0,0-.83,1.13v1.6a1.35,1.35,0,0,0,.83,1.15,4.06,4.06,0,0,0,2,.47h2.83Z"/><path d="M2398.29,17.5V30.37H2404V32h-17v-1.6h5.69V17.5Z"/><path d="M2381.25,17.5V32h-5.66V17.5Z"/><path d="M2367.07,17.5V28.75a2.7,2.7,0,0,1-1.69,2.28,8.07,8.07,0,0,1-4,.94h-5.69a7.89,7.89,0,0,1-4-1,2.71,2.71,0,0,1-1.67-2.27V17.5h5.66v6.42h5.69V17.5Zm-5.69,8h-5.69v3.2a1.35,1.35,0,0,0,.83,1.15,4.06,4.06,0,0,0,2,.47,4,4,0,0,0,2-.47,1.35,1.35,0,0,0,.84-1.15Z"/><path d="M2344.34,17.5V32H2343l-15.71-8v8h-2.86V17.5h1.29l15.75,8v-8Z"/><path d="M2307.39,17.5V32h-5.66V17.5Z"/></g></g></svg>