<svg xmlns="http://www.w3.org/2000/svg" xmlns:xlink="http://www.w3.org/1999/xlink" viewBox="0 0 4604 1275.44"><defs><style>.cls-1{fill:#ffa935;}.cls-2{fill:#e97900;}.cls-3{fill:#e94f00;}.cls-10,.cls-12,.cls-4,.cls-7{fill:gray;}.cls-10,.cls-12,.cls-16,.cls-17,.cls-4,.cls-6,.cls-7,.cls-8,.cls-9{stroke:#4d4d4d;stroke-miterlimit:10;}.cls-4{stroke-width:9.69px;}.cls-5{fill:#666;}.cls-6{stroke-width:1.83px;}.cls-7{stroke-width:14.45px;}.cls-8,.cls-9{stroke-width:12.21px;}.cls-17,.cls-9{fill:none;}.cls-10{stroke-width:14.24px;}.cls-11,.cls-14{opacity:0.22;}.cls-11{fill:url(#linear-gradient);}.cls-12{stroke-width:10.1px;}.cls-13{fill:#de241b;}.cls-14{fill:url(#linear-gradient-2);}.cls-15{fill:#007545;}.cls-16,.cls-17{stroke-width:17.96px;}</style><linearGradient id="linear-gradient" y1="960.04" x2="1786.14" y2="960.04" gradientUnits="userSpaceOnUse"><stop offset="0" stop-color="#fff" stop-opacity="0"/><stop offset="0.11" stop-color="#fff" stop-opacity="0.01"/><stop offset="0.2" stop-color="#fff" stop-opacity="0.05"/><stop offset="0.28" stop-color="#fff" stop-opacity="0.12"/><stop offset="0.37" stop-color="#fff" stop-opacity="0.22"/><stop offset="0.45" stop-color="#fff" stop-opacity="0.35"/><stop offset="0.53" stop-color="#fff" stop-opacity="0.51"/><stop offset="0.6" stop-color="#fff" stop-opacity="0.69"/><stop offset="0.68" stop-color="#fff" stop-opacity="0.9"/><stop offset="0.71" stop-color="#fff"/></linearGradient><linearGradient id="linear-gradient-2" y1="328.04" x2="1786.14" y2="328.04" gradientUnits="userSpaceOnUse"><stop offset="0" stop-color="#fff" stop-opacity="0"/><stop offset="0.02" stop-color="#fff" stop-opacity="0"/><stop offset="0.12" stop-color="#fff" stop-opacity="0.01"/><stop offset="0.21" stop-color="#fff" stop-opacity="0.06"/><stop offset="0.29" stop-color="#fff" stop-opacity="0.13"/><stop offset="0.38" stop-color="#fff" stop-opacity="0.23"/><stop offset="0.45" stop-color="#fff" stop-opacity="0.36"/><stop offset="0.53" stop-color="#fff" stop-opacity="0.52"/><stop offset="0.61" stop-color="#fff" stop-opacity="0.71"/><stop offset="0.68" stop-color="#fff" stop-opacity="0.92"/><stop offset="0.71" stop-color="#fff"/></linearGradient></defs><title>ShipTopOn_1</title><g id="Layer_2" data-name="Layer 2"><g id="Layer_9" data-name="Layer 9"><rect class="cls-1" x="3745.1" y="1023.58" width="858.9" height="247.02" rx="123.51" ry="123.51"/><rect class="cls-2" x="3745.1" y="1023.58" width="684.54" height="247.02" rx="123.51" ry="123.51"/><rect class="cls-3" x="3745.1" y="1023.58" width="498.87" height="247.02" rx="123.51" ry="123.51"/><rect class="cls-1" x="3745.1" y="3.23" width="858.9" height="247.02" rx="123.51" ry="123.51"/><rect class="cls-2" x="3745.1" y="3.23" width="684.54" height="247.02" rx="123.51" ry="123.51"/><rect class="cls-3" x="3745.1" y="3.23" width="498.87" height="247.02" rx="123.51" ry="123.51"/><rect class="cls-4" x="3173.57" y="4.84" width="858.9" height="247.02" rx="123.51" ry="123.51"/><path class="cls-5" d="M4022.79,93.58a113.62,113.62,0,0,0-101.44-62.9H3389.76c-62.62,0-113.56,51.23-113.56,114.21a114.34,114.34,0,0,0,73.84,107H3296.4c-67.84,0-122.83-55.3-122.83-123.51a123.42,123.42,0,0,1,36-87.33A122.06,122.06,0,0,1,3296.4,4.84h608.51C3960.73,4.84,4007.85,42.3,4022.79,93.58Z"/><ellipse class="cls-6" cx="3374.27" cy="25.42" rx="24.26" ry="12.38"/><ellipse class="cls-6" cx="3473.2" cy="25.42" rx="24.26" ry="12.38"/><ellipse class="cls-6" cx="3572.13" cy="25.42" rx="24.26" ry="12.38"/><rect class="cls-4" x="3173.57" y="1023.58" width="858.9" height="247.02" rx="123.51" ry="123.51"/><path class="cls-5" d="M4021.17,1110.57a113.62,113.62,0,0,0-101.25-61.67H3389.35c-62.5,0-113.35,50.22-113.35,112,0,48,30.69,89,73.7,104.88h-53.54c-67.71,0-122.59-54.21-122.59-121.09a119.92,119.92,0,0,1,35.91-85.62,122.93,122.93,0,0,1,86.68-35.47h607.35C3959.23,1023.58,4006.27,1060.3,4021.17,1110.57Z"/><ellipse class="cls-6" cx="3374.27" cy="1250.06" rx="24.26" ry="12.38"/><ellipse class="cls-6" cx="3473.2" cy="1250.06" rx="24.26" ry="12.38"/><ellipse class="cls-6" cx="3572.13" cy="1250.06" rx="24.26" ry="12.38"/><rect class="cls-7" x="2368.7" y="251.86" width="1178.57" height="250.24" rx="70.31" ry="70.31"/><path class="cls-5" d="M3547.27,431.79V394.64a55.79,55.79,0,0,1-55.8,55.8H2667.81a55.79,55.79,0,0,1-55.8-55.8v-87a55.79,55.79,0,0,1,55.8-55.8H2439a70.31,70.31,0,0,0-70.31,70.31V431.79A70.31,70.31,0,0,0,2439,502.1H3477A70.31,70.31,0,0,0,3547.27,431.79Z"/><ellipse class="cls-6" cx="2787.6" cy="273.03" rx="24.26" ry="12.38"/><ellipse class="cls-6" cx="2886.53" cy="273.03" rx="24.26" ry="12.38"/><ellipse class="cls-6" cx="2985.47" cy="273.03" rx="24.26" ry="12.38"/><ellipse class="cls-6" cx="3084.4" cy="273.03" rx="24.26" ry="12.38"/><ellipse class="cls-6" cx="3183.33" cy="273.03" rx="24.26" ry="12.38"/><rect class="cls-7" x="2368.7" y="771.72" width="1178.57" height="250.24" rx="70.31" ry="70.31"/><path class="cls-5" d="M3547.27,842v37.15a55.79,55.79,0,0,0-55.8-55.8H2667.81a55.79,55.79,0,0,0-55.8,55.8v87a55.43,55.43,0,0,0,4.79,22.63c-62.53,29.46-130.47,32.76-177.42,33.11l-2.41,0h-.1c-.5,0-1,0-1.5-.06h-.06a70.33,70.33,0,0,1-66.63-70.21V842A70.29,70.29,0,0,1,2439,771.72H3477A70.31,70.31,0,0,1,3547.27,842Z"/><ellipse class="cls-6" cx="2787.6" cy="998" rx="24.26" ry="12.38"/><ellipse class="cls-6" cx="2886.53" cy="998" rx="24.26" ry="12.38"/><ellipse class="cls-6" cx="2985.47" cy="998" rx="24.26" ry="12.38"/><ellipse class="cls-6" cx="3084.4" cy="998" rx="24.26" ry="12.38"/><ellipse class="cls-6" cx="3183.33" cy="998" rx="24.26" ry="12.38"/><path class="cls-4" d="M4056.28,637.72c0,189.92-495.07,343.88-685,343.88s-343.88-154-343.88-343.88,154-343.88,343.88-343.88S4056.28,447.8,4056.28,637.72Z"/><path class="cls-5" d="M4051.5,637.67a110.76,110.76,0,0,1-1.72,19.38c-31.67-180.89-493.27-324.46-675.7-324.46S3042.59,476.16,3032.6,657.05q-.55-9.62-.54-19.38c0-189.9,153.13-343.84,342-343.84S4051.5,447.77,4051.5,637.67Z"/><path class="cls-5" d="M3062.56,649c13,177.29,136.18,271.6,310.36,327.81C3184.24,978.56,3031.28,822,3031.28,633.4s154.89-335.69,343.57-335.69C3253.11,323.7,3049.4,469.54,3062.56,649Z"/><path class="cls-8" d="M3371.29,377.79c-143.56,0-259.93,116.38-259.93,259.93s116.38,259.93,259.93,259.93,601-116.38,601-259.93S3514.85,377.79,3371.29,377.79Zm10.6,311a51.08,51.08,0,1,1,0-102.16c28.36,0,69.77,23.79,69.77,52S3410.25,688.8,3381.89,688.8Z"/><line class="cls-9" x1="3764.66" y1="806.29" x2="3441" y2="662.87"/><polyline class="cls-9" points="3347.54 593.62 3187.77 453.24 3187.29 452.76"/><line class="cls-9" x1="3764.66" y1="469.06" x2="3441" y2="614.41"/><polyline class="cls-9" points="3187.29 821.32 3187.77 820.84 3347.54 680.46"/><path class="cls-10" d="M1340.11,637.72c0-279.26,727.95-505.65,1007.21-505.65S2853,358.46,2853,637.72s-226.39,505.65-505.65,505.65S1340.11,917,1340.11,637.72Z"/><path class="cls-5" d="M1378.87,657.11c0,114.21,121.85,211.81,284.9,296.47-182.12-87.68-323.66-192.74-323.66-315.85,0-279.28,727.95-505.67,1007.2-505.67,88.92,0,172.49,30.7,245.09,71-63-28.2-132.84-51.63-206.33-51.63C2106.82,151.44,1378.87,377.83,1378.87,657.11Z"/><polygon class="cls-11" points="1786.14 954.18 1680.87 963.24 0 1107.56 0 812.52 1681.34 945.89 1786.14 954.18"/><path class="cls-12" d="M1836.26,957.69a27,27,0,0,1-27,27c-14.92,0-72.57-12.09-72.57-27s57.65-27,72.57-27A27,27,0,0,1,1836.26,957.69Z"/><circle class="cls-13" cx="1814.13" cy="959.31" r="11.39"/><polygon class="cls-14" points="1786.14 322.18 1680.87 331.24 0 475.56 0 180.52 1681.34 313.89 1786.14 322.18"/><path class="cls-12" d="M1836.26,322a27,27,0,0,1-27,27c-14.92,0-72.57-12.09-72.57-27s57.65-27,72.57-27A27,27,0,0,1,1836.26,322Z"/><circle class="cls-15" cx="1814.13" cy="323.62" r="11.39"/><path class="cls-16" d="M2347.33,1019.93c211.09,0,382.21-171.12,382.21-382.21s-171.12-382.21-382.21-382.21-883.77,171.12-883.77,382.21S2136.24,1019.93,2347.33,1019.93Zm-15.58-457.32c41.7,0,75.52,33.63,75.52,75.11s-33.82,75.11-75.52,75.11-102.59-35-102.59-76.46S2290,562.61,2331.74,562.61Z"/><line class="cls-17" x1="1768.91" y1="389.86" x2="2244.83" y2="600.74"/><polyline class="cls-17" points="2382.25 702.57 2617.17 908.98 2617.88 909.69"/><line class="cls-17" x1="1768.91" y1="885.72" x2="2244.83" y2="671.99"/><polyline class="cls-17" points="2617.88 367.75 2617.17 368.46 2382.25 574.88"/><path d="M3648.94,1247.59h-2.83q-.38-1.62-2.69-1.62a4.88,4.88,0,0,0-2.25.41,1.3,1.3,0,0,0-.75,1.22q0,.6.82,1.14l6,3.82q1.67,1.06,1.67,2.28v.79a2.71,2.71,0,0,1-1.67,2.27,8,8,0,0,1-4,1h-2.83a8.93,8.93,0,0,1-4.26-.8,2.6,2.6,0,0,1-1.43-2.42h2.86v.27c0,.44.29.77.89,1a5.28,5.28,0,0,0,1.94.35,4.25,4.25,0,0,0,2.17-.42,1.34,1.34,0,0,0,.66-1.2,1.43,1.43,0,0,0-.82-1.14l-6-3.82q-1.67-1-1.67-2.28v-.79a2.7,2.7,0,0,1,1.67-2.27,8,8,0,0,1,4-1h2.83Q3648.59,1244.37,3648.94,1247.59Z"/><path d="M3654.6,1258.84v-3.22h5.69v3.22Z"/><path d="M3680.16,1247.59h-2.83q-.38-1.62-2.69-1.62a4.88,4.88,0,0,0-2.25.41,1.3,1.3,0,0,0-.75,1.22q0,.6.82,1.14l6,3.82q1.67,1.06,1.67,2.28v.79a2.71,2.71,0,0,1-1.67,2.27,8,8,0,0,1-4,1h-2.83a8.93,8.93,0,0,1-4.26-.8,2.6,2.6,0,0,1-1.43-2.42h2.86v.27c0,.44.29.77.89,1a5.28,5.28,0,0,0,1.94.35,4.25,4.25,0,0,0,2.17-.42,1.34,1.34,0,0,0,.66-1.2,1.43,1.43,0,0,0-.82-1.14l-6-3.82q-1.67-1-1.67-2.28v-.79a2.7,2.7,0,0,1,1.67-2.27,8,8,0,0,1,4-1h2.83Q3679.81,1244.37,3680.16,1247.59Z"/><path d="M3685.81,1258.84v-3.22h5.69v3.22Z"/><path d="M3705.68,1258.84v-14.47H3707l12.13,6.85,12.1-6.85h2.86v14.47h-5.69V1250l-10,5.63-9.92-5.63v8.83Z"/><path d="M3739.76,1258.84v-11.25a2.7,2.7,0,0,1,1.69-2.28,8.07,8.07,0,0,1,4-.94h5.69a7.89,7.89,0,0,1,4,1,2.71,2.71,0,0,1,1.67,2.27v11.25h-5.66v-6.42h-5.69v6.42Zm5.69-8h5.69v-3.2a1.35,1.35,0,0,0-.83-1.15,4.06,4.06,0,0,0-2-.47,4,4,0,0,0-2,.47,1.35,1.35,0,0,0-.84,1.15Z"/><path d="M3762.5,1258.84v-14.47h11.38a7.89,7.89,0,0,1,4,1,2.71,2.71,0,0,1,1.67,2.27v.87a2.72,2.72,0,0,1-1.29,2.07,7.32,7.32,0,0,1-4.36,1h2.83a4,4,0,0,1,2,.47,1.36,1.36,0,0,1,.83,1.15v5.69h-5.66V1254a1.35,1.35,0,0,0-.83-1.13,4.06,4.06,0,0,0-2-.47h-2.83v6.42Zm5.69-8H3771a4,4,0,0,0,2-.47,1.34,1.34,0,0,0,.83-1.13v-1.6a1.35,1.35,0,0,0-.83-1.15,4.06,4.06,0,0,0-2-.47h-2.83Z"/><path d="M3788.09,1258.84V1246h-5.69v-1.6h17v1.6h-5.69v12.87Z"/><path d="M3805.13,1258.84v-14.47h5.66v14.47Z"/><path d="M3819.31,1258.84v-11.25a2.7,2.7,0,0,1,1.69-2.28,8.07,8.07,0,0,1,4-.94h5.69a7.89,7.89,0,0,1,4,1,2.71,2.71,0,0,1,1.67,2.27v11.25h-5.66v-6.42H3825v6.42Zm5.69-8h5.69v-3.2a1.35,1.35,0,0,0-.83-1.15,4.06,4.06,0,0,0-2-.47,4,4,0,0,0-2,.47,1.35,1.35,0,0,0-.84,1.15Z"/><path d="M3842,1258.84v-14.47h1.33l15.71,8v-8h2.86v14.47h-1.29l-15.75-8v8Z"/><path d="M3879,1258.84v-14.47h5.66v14.47Z"/><path d="M3870.43,28.75h2.83q.38,1.62,2.69,1.62a4.88,4.88,0,0,0,2.25-.41,1.3,1.3,0,0,0,.75-1.22q0-.6-.82-1.14l-6-3.82q-1.67-1.06-1.67-2.28v-.79a2.71,2.71,0,0,1,1.67-2.27,8,8,0,0,1,4-1H3879a8.93,8.93,0,0,1,4.26.8,2.6,2.6,0,0,1,1.43,2.42h-2.86v-.27c0-.44-.29-.77-.89-1a5.28,5.28,0,0,0-1.94-.35,4.25,4.25,0,0,0-2.17.42,1.34,1.34,0,0,0-.66,1.2,1.43,1.43,0,0,0,.82,1.14l6,3.82q1.67,1,1.67,2.28v.79A2.7,2.7,0,0,1,3883,31a8,8,0,0,1-4,1h-2.83Q3870.77,32,3870.43,28.75Z"/><path d="M3864.77,17.5v3.22h-5.69V17.5Z"/><path d="M3839.21,28.75H3842q.38,1.62,2.69,1.62A4.88,4.88,0,0,0,3847,30a1.3,1.3,0,0,0,.75-1.22q0-.6-.82-1.14l-6-3.82q-1.67-1.06-1.67-2.28v-.79a2.71,2.71,0,0,1,1.67-2.27,8,8,0,0,1,4-1h2.83a8.93,8.93,0,0,1,4.26.8,2.6,2.6,0,0,1,1.43,2.42h-2.86v-.27c0-.44-.29-.77-.89-1a5.28,5.28,0,0,0-1.94-.35,4.25,4.25,0,0,0-2.17.42,1.34,1.34,0,0,0-.66,1.2,1.43,1.43,0,0,0,.82,1.14l6,3.82q1.67,1,1.67,2.28v.79a2.7,2.7,0,0,1-1.67,2.27,8,8,0,0,1-4,1h-2.83Q3839.55,32,3839.21,28.75Z"/><path d="M3833.55,17.5v3.22h-5.69V17.5Z"/><path d="M3813.69,17.5V32h-1.33l-12.13-6.85L3788.13,32h-2.86V17.5H3791v8.83l10-5.63,9.92,5.63V17.5Z"/><path d="M3779.6,17.5V28.75a2.7,2.7,0,0,1-1.69,2.28,8.07,8.07,0,0,1-4,.94h-5.69a7.89,7.89,0,0,1-4-1,2.71,2.71,0,0,1-1.67-2.27V17.5h5.66v6.42h5.69V17.5Zm-5.69,8h-5.69v3.2a1.35,1.35,0,0,0,.83,1.15,4.06,4.06,0,0,0,2,.47,4,4,0,0,0,2-.47,1.35,1.35,0,0,0,.84-1.15Z"/><path d="M3756.87,17.5V32h-11.38a7.89,7.89,0,0,1-4-1,2.71,2.71,0,0,1-1.67-2.27v-.87a2.72,2.72,0,0,1,1.29-2.07,7.32,7.32,0,0,1,4.36-1h-2.83a4,4,0,0,1-2-.47,1.36,1.36,0,0,1-.83-1.15V17.5h5.66v4.82a1.35,1.35,0,0,0,.83,1.13,4.06,4.06,0,0,0,2,.47h2.83V17.5Zm-5.69,8h-2.83a4,4,0,0,0-2,.47,1.34,1.34,0,0,0-.83,1.13v1.6a1.35,1.35,0,0,0,.83,1.15,4.06,4.06,0,0,0,2,.47h2.83Z"/><path d="M3731.28,17.5V30.37H3737V32h-17v-1.6h5.69V17.5Z"/><path d="M3714.24,17.5V32h-5.66V17.5Z"/><path d="M3700.06,17.5V28.75a2.7,2.7,0,0,1-1.69,2.28,8.07,8.07,0,0,1-4,.94h-5.69a7.89,7.89,0,0,1-4-1,2.71,2.71,0,0,1-1.67-2.27V17.5h5.66v6.42h5.69V17.5Zm-5.69,8h-5.69v3.2a1.35,1.35,0,0,0,.83,1.15,4.06,4.06,0,0,0,2,.47,4,4,0,0,0,2-.47,1.35,1.35,0,0,0,.84-1.15Z"/><path d="M3677.33,17.5V32H3676l-15.71-8v8h-2.86V17.5h1.29l15.75,8v-8Z"/><path d="M3640.38,17.5V32h-5.66V17.5Z"/></g></g></svg>