<svg xmlns="http://www.w3.org/2000/svg" viewBox="0 0 2812.65 885.67"><defs><style>.cls-1,.cls-11,.cls-14,.cls-3,.cls-4,.cls-6,.cls-9{fill:gray;}.cls-1,.cls-11,.cls-12,.cls-13,.cls-15,.cls-3,.cls-4,.cls-5,.cls-6,.cls-7,.cls-8,.cls-9{stroke:#4d4d4d;stroke-miterlimit:10;}.cls-1{stroke-width:6.37px;}.cls-2{fill:#666;}.cls-3{stroke-width:10px;}.cls-4{stroke-width:3px;}.cls-13,.cls-15,.cls-5,.cls-8{fill:none;}.cls-5{stroke-width:8.81px;}.cls-6{stroke-width:6.65px;}.cls-7,.cls-8{stroke-width:12.61px;}.cls-9{stroke-width:10.1px;}.cls-10{fill:#de241b;}.cls-11{stroke-width:11.15px;}.cls-12,.cls-13{stroke-width:21.14px;}.cls-15{stroke-width:2.94px;}.cls-16{font-size:43.4px;font-family:Silom, Silom;}.cls-17{fill:#007545;}</style></defs><title>ShipRightTransparent</title><g id="Layer_2" data-name="Layer 2"><g id="Layer_6" data-name="Layer 6"><rect class="cls-1" x="227.54" y="420.01" width="564.85" height="162.45" rx="81.22" ry="81.22" transform="translate(1019.93 1002.47) rotate(-180)"/><path class="cls-2" d="M233.91,478.37A74.72,74.72,0,0,1,300.62,437H650.22c41.18,0,74.68,33.69,74.68,75.11a75.19,75.19,0,0,1-48.56,70.35h35.28c44.61,0,80.77-36.36,80.77-81.22a81.16,81.16,0,0,0-23.66-57.43A80.27,80.27,0,0,0,711.61,420H311.44A80.87,80.87,0,0,0,233.91,478.37Z"/><path class="cls-3" d="M349.67,545.33v114.8c0,40.67,20.7,73.63,46.24,73.63,0,0,685.56-56.47,696.84-56.47s667.57,56.47,667.57,56.47c34.55,0,64.13-33.91,76.31-82a199.8,199.8,0,0,0,6-49.05c0-36.18-9.21-68.94-24.1-92.65S1783,471.7,1760.32,471.7H395.91C370.37,471.7,349.67,504.66,349.67,545.33Z"/><path class="cls-4" d="M237.78,645.75v10.79H719.73a112.35,112.35,0,0,1,86.22,184.4l766.3-31.15c52,0,270-44,270-134l.35.34a53.3,53.3,0,0,0-6-24.35c-13.39-26.29-47.83-45-88.19-45H290.69C261.47,606.79,237.78,624.23,237.78,645.75ZM1248.31,736c0-.76,0-1.52.11-2.26a21.81,21.81,0,0,1,43.38,0c.07.74.11,1.5.11,2.26a21.8,21.8,0,1,1-43.6,0Zm-88.89,0c0-.76,0-1.52.11-2.26a21.81,21.81,0,0,1,43.38,0c.07.74.11,1.5.11,2.26a21.8,21.8,0,0,1-43.6,0Zm-88.89,0c0-.76,0-1.52.11-2.26a21.81,21.81,0,0,1,43.38,0c.07.74.11,1.5.11,2.26a21.8,21.8,0,1,1-43.6,0Zm-88.89,0c0-.76,0-1.52.11-2.26a21.81,21.81,0,0,1,43.38,0c.07.74.11,1.5.11,2.26a21.8,21.8,0,1,1-43.6,0Zm-88.89,0c0-.76,0-1.52.11-2.26a21.81,21.81,0,0,1,43.38,0c.07.74.11,1.5.11,2.26a21.8,21.8,0,0,1-43.6,0Z"/><path class="cls-2" d="M274.79,854.54a72.2,72.2,0,0,0,15.9,1.75l1281.56-50.95c52,0,270-43,270-131.06l.35.33c0-37.46-42.16-67.82-94.16-67.82h-60c52,0,94.16,30.36,94.16,67.82l-.35-.33c0,88-218,131.06-270,131.06Z"/><path class="cls-5" d="M237.78,645.75V822.92c0,21.52,23.69,39,52.91,39l1281.56-52.09c52,0,270-44,270-134l.35.34a53.3,53.3,0,0,0-6-24.35c-13.39-26.29-47.83-45-88.19-45H290.69C261.47,606.79,237.78,624.23,237.78,645.75Z"/><path class="cls-6" d="M3.33,542c0,83.82,372.92,151.77,575.89,151.77S946.72,625.79,946.72,542c0-33.55-10-64.62-28.14-92.46C879.52,389.37,802.94,344.3,709.1,321.83a599,599,0,0,0-139-15.94c-45.39,0-88.39,4.12-127.81,12.24-94.34,19.41-270.2,48.3-359.41,125.19C57.8,464.93,3.33,504.89,3.33,542Z"/><path class="cls-2" d="M560.49,693.54q9.3.19,18.73.2c203,0,367.5-67.94,367.5-151.76,0-33.55-10-64.62-28.13-92.46C879.52,389.38,802.94,344.3,709.11,321.84a598.8,598.8,0,0,0-139-15.94q-9.78,0-19.4.26a592.68,592.68,0,0,1,120.78,15.69C765.3,344.3,841.88,389.38,881,449.52,899,477.36,909.08,508.42,909.08,542,909.08,623.18,754.67,689.48,560.49,693.54Z"/><path class="cls-7" d="M82.61,447.27C118.41,495.84,433.59,561,579.22,561c199.46,0,328.78-86.77,335-110.42-39.07-60.14-111.26-106.3-205.1-128.77a599,599,0,0,0-139-15.94c-45.39,0-87.74,1.29-127.81,5.06C329.8,321.52,155.9,379,82.61,447.27Zm495.15-98c40.35,0,73.06,11.24,73.06,25.1s-32.71,25.1-73.06,25.1-73.06-11.24-73.06-25.1S537.41,349.28,577.76,349.28Z"/><path class="cls-8" d="M224.89,505.47c53.37-51.31,191.86-99.88,316.34-109.26"/><polyline class="cls-8" points="826.08 253.08 826.35 252.92 827 252.54"/><path class="cls-8" d="M756.76,335.64C711.52,336.71,671.6,346,637.3,364"/><path class="cls-8" d="M520.37,364c-16.28-18.78-111.48-32.89-170.45-36.77"/><path class="cls-8" d="M801.33,521.73C745.86,462,699,435.53,613.56,396.21"/><path class="cls-9" d="M2288.75,279.31A32.29,32.29,0,0,0,2321,311.6c17.83,0,86.76-14.46,86.76-32.29S2338.87,247,2321,247A32.29,32.29,0,0,0,2288.75,279.31Z"/><circle class="cls-10" cx="2315.2" cy="281.26" r="13.62"/><path class="cls-11" d="M2807.07,475c0,134.87-651.42,244.2-1006,244.2s-642-109.33-642-244.2c0-54,17.55-104,49.15-148.78,68.24-96.77,202-169.3,365.93-205.45,75.68-16.71,157.78-25.65,242.83-25.65,79.28,0,154.4,6.63,223.26,19.7,164.79,31.24,472,77.71,627.82,201.44C2711.91,351,2807.07,415.35,2807.07,475Z"/><path class="cls-2" d="M2801.85,476c0,134.88-651.42,244.21-1006,244.21-138.64,0-267-23.72-372-52.14,96.86,22.3,210.47,42.14,332,42.14,354.54,0,1006-109.33,1006-244.21,0-59.68-95.15-124-138.93-158.74-79.75-63.32-199.16-106.41-318.83-137.57,132.54,31.8,270.18,77.19,358.83,147.57C2706.7,352,2801.85,416.35,2801.85,476Z"/><path class="cls-12" d="M2668.58,322.64c-62.54,78.15-613.1,183-867.48,183-348.42,0-574.32-139.62-585.15-177.67C1284.19,231.24,1410.3,157,1574.22,120.8c75.68-16.71,157.78-25.65,242.83-25.65,79.28,0,153.26,2.07,223.26,8.13C2236.79,120.29,2540.55,212.79,2668.58,322.64ZM1803.65,165C1733.17,165,1676,183,1676,205.36s57.14,40.39,127.63,40.39,127.63-18.09,127.63-40.39S1874.14,165,1803.65,165Z"/><path class="cls-13" d="M2420,416.29c-93.22-82.56-335.14-160.72-552.58-175.81"/><polyline class="cls-13" points="1369.89 10.16 1369.42 9.91 1368.28 9.29"/><path class="cls-13" d="M1491,143c79,1.73,148.76,16.71,208.67,45.7"/><path class="cls-13" d="M1903.89,188.71c28.44-30.22,194.72-52.92,297.75-59.16"/><path class="cls-13" d="M1413.12,442.46c96.9-96.14,178.67-138.71,328-202"/><path class="cls-14" d="M50.7,768.9A112.36,112.36,0,0,0,163.06,881.26H719.73a112.36,112.36,0,0,0,0-224.72H163.06A112.36,112.36,0,0,0,50.7,768.9Zm473.06,7.64a27.83,27.83,0,1,1-27.84-27.84A27.84,27.84,0,0,1,523.76,776.54Zm97.5-1a27.84,27.84,0,1,1-27.84-27.84A27.85,27.85,0,0,1,621.26,775.54Zm69.65-27.84a27.84,27.84,0,1,1-27.83,27.84A27.84,27.84,0,0,1,690.91,747.7Z"/><path class="cls-5" d="M50.7,768.9A112.36,112.36,0,0,0,163.06,881.26H719.73a112.36,112.36,0,0,0,0-224.72H163.06A112.36,112.36,0,0,0,50.7,768.9Z"/><circle class="cls-15" cx="690.91" cy="775.54" r="27.84"/><circle class="cls-15" cx="593.41" cy="775.54" r="27.84"/><circle class="cls-15" cx="495.92" cy="776.54" r="27.84"/><path class="cls-2" d="M151.4,877a115.57,115.57,0,0,0,13,.73H717.56c61.67,0,111.65-48.58,111.65-108.5a106.65,106.65,0,0,0-32.7-76.73,112.94,112.94,0,0,0-78.95-31.78H662.78a112.56,112.56,0,0,1,65.94,31,106.65,106.65,0,0,1,32.7,76.73c0,59.92-50,108.5-111.65,108.5Z"/><text class="cls-16" transform="translate(125.47 794.84) scale(0.92 1)">S.S. MARTIAN I</text><path class="cls-9" d="M2288.75,549.31A32.29,32.29,0,0,0,2321,581.6c17.83,0,86.76-14.46,86.76-32.29S2338.87,517,2321,517A32.29,32.29,0,0,0,2288.75,549.31Z"/><circle class="cls-17" cx="2315.2" cy="551.26" r="13.62"/></g></g></svg>